<svg xmlns="http://www.w3.org/2000/svg" version="1.1" xmlns:xlink="http://www.w3.org/1999/xlink" width="512" height="512" x="0" y="0" viewBox="0 0 511.993 511.993" style="enable-background:new 0 0 512 512" xml:space="preserve" class=""><g><linearGradient id="a" x1="255.997" x2="255.997" y1="279.958" y2="100.229" gradientUnits="userSpaceOnUse"><stop stop-opacity="1" stop-color="#f45e95" offset="0"></stop><stop stop-opacity="1" stop-color="#f6527c" offset="0.42277992277992277"></stop><stop stop-opacity="1" stop-color="#f6527c" offset="0.997"></stop></linearGradient><linearGradient id="b" x1="255.997" x2="255.997" y1="511.993" y2="0" gradientUnits="userSpaceOnUse"><stop stop-opacity="1" stop-color="#00b59c" offset="0"></stop><stop stop-opacity="1" stop-color="#eb5c8c" offset="0"></stop><stop stop-opacity="1" stop-color="#eb5c8c" offset="0.0444015444015444"></stop><stop stop-opacity="1" stop-color="#eb5c8c" offset="1"></stop></linearGradient><path fill="url(#a)" d="m387.715 255.568-120-150c-5.713-7.119-17.725-7.119-23.438 0l-120 150c-5.171 6.475-4.116 15.908 2.344 21.094 6.504 5.215 15.923 4.102 21.094-2.344l108.281-135.366 108.281 135.366c5.221 6.481 14.643 7.497 21.094 2.344 6.461-5.186 7.515-14.619 2.344-21.094z" opacity="1" data-original="url(#a)"></path><path fill="url(#b)" d="m387.715 352.618-120-150c-5.713-7.119-17.725-7.119-23.437 0l-120 150c-7.835 9.81-.836 24.375 11.719 24.375h45v120c0 8.291 6.709 15 15 15h120c8.291 0 15-6.709 15-15v-120h45c12.555 0 19.553-14.565 11.718-24.375zM126.622 176.433c6.504 5.2 15.923 4.116 21.094-2.344L255.997 38.723l108.281 135.366c5.221 6.481 14.644 7.497 21.094 2.344 6.46-5.186 7.515-14.619 2.344-21.094l-120-150c-5.713-7.119-17.725-7.119-23.437 0l-120 150c-5.172 6.475-4.117 15.909 2.343 21.094z" opacity="1" data-original="url(#b)" class=""></path></g></svg>